G04 EAGLE Gerber X2 export*
%TF.Part,Single*%
%TF.FileFunction,Copper,L1,Top,Mixed*%
%TF.FilePolarity,Positive*%
%TF.GenerationSoftware,Autodesk,EAGLE,9.1.3*%
%TF.CreationDate,2018-10-12T20:40:38Z*%
G75*
%MOMM*%
%FSLAX34Y34*%
%LPD*%
%AMOC8*
5,1,8,0,0,1.08239X$1,22.5*%
G01*
%ADD10P,1.732040X8X202.500000*%
%ADD11C,1.600200*%
%ADD12C,1.524000*%
%ADD13P,1.429621X8X112.500000*%
%ADD14C,2.000000*%
%ADD15C,0.609600*%
%ADD16C,0.406400*%
%ADD17C,0.508000*%


D10*
X368300Y571500D03*
D11*
X393700Y571500D03*
D12*
X292100Y414020D02*
X292100Y398780D01*
X317500Y398780D02*
X317500Y414020D01*
X342900Y414020D02*
X342900Y398780D01*
X292100Y449580D02*
X292100Y464820D01*
X317500Y464820D02*
X317500Y449580D01*
X342900Y449580D02*
X342900Y464820D01*
X292100Y500380D02*
X292100Y515620D01*
X317500Y515620D02*
X317500Y500380D01*
X342900Y500380D02*
X342900Y515620D01*
D13*
X323850Y546100D03*
X323850Y622300D03*
X298450Y546100D03*
X298450Y622300D03*
X273050Y546100D03*
X273050Y622300D03*
D12*
X377825Y356870D02*
X377825Y341630D01*
X352425Y341630D02*
X352425Y356870D01*
X327025Y356870D02*
X327025Y341630D01*
X301625Y341630D02*
X301625Y356870D01*
X260350Y652780D02*
X260350Y668020D01*
X285750Y668020D02*
X285750Y652780D01*
X311150Y652780D02*
X311150Y668020D01*
X336550Y668020D02*
X336550Y652780D01*
D14*
X424575Y611300D02*
X444575Y611300D01*
X444575Y674300D02*
X424575Y674300D01*
X384575Y651300D02*
X384575Y631300D01*
D15*
X317500Y508000D02*
X317500Y457200D01*
X317500Y406400D01*
X317500Y508000D02*
X317500Y520700D01*
X368300Y571500D01*
X349250Y641350D02*
X349250Y647700D01*
X349250Y641350D02*
X349250Y638175D01*
X349250Y590550D01*
X368300Y571500D01*
X349300Y641300D02*
X349250Y641350D01*
X349250Y647700D02*
X336550Y660400D01*
X403225Y606425D02*
X368300Y571500D01*
X403225Y606425D02*
X403225Y642950D01*
X434575Y674300D01*
D16*
X276225Y523875D02*
X276225Y473075D01*
X276225Y523875D02*
X298450Y546100D01*
X276225Y473075D02*
X292100Y457200D01*
X292100Y508000D02*
X292100Y514350D01*
X323850Y546100D01*
X263525Y434975D02*
X292100Y406400D01*
X263525Y536575D02*
X273050Y546100D01*
X263525Y536575D02*
X263525Y434975D01*
D17*
X285750Y635000D02*
X285750Y660400D01*
X285750Y635000D02*
X298450Y622300D01*
X311150Y635000D02*
X311150Y660400D01*
X311150Y635000D02*
X323850Y622300D01*
D15*
X393700Y571500D02*
X393700Y463186D01*
X393048Y462533D02*
X393048Y373998D01*
X393048Y462533D02*
X393700Y463186D01*
X415925Y571500D02*
X434575Y590150D01*
X434575Y611300D01*
X415925Y571500D02*
X393700Y571500D01*
X393048Y373998D02*
X377825Y358775D01*
X377825Y349250D01*
D17*
X260350Y635000D02*
X260350Y660400D01*
X260350Y635000D02*
X273050Y622300D01*
D15*
X342900Y508000D02*
X342900Y507462D01*
X375412Y474950D01*
X352425Y360045D02*
X352425Y349250D01*
X375412Y383032D02*
X375412Y474950D01*
X375412Y383032D02*
X352425Y360045D01*
X342900Y456662D02*
X342900Y457200D01*
X327025Y358775D02*
X327025Y349250D01*
X327025Y358775D02*
X361950Y393700D01*
X361950Y438150D01*
X343438Y456662D01*
X342900Y456662D01*
X301625Y355600D02*
X301625Y349250D01*
X301625Y355600D02*
X342900Y396875D01*
X342900Y406400D01*
M02*
