M48
;GenerationSoftware,Autodesk,EAGLE,9.1.3*%
;CreationDate,2018-10-12T20:40:38Z*%
FMAT,2
ICI,OFF
METRIC,TZ,000.000
T4C0.813
T3C1.000
T2C1.016
T1C4.000
%
G90
M71
T1
X43000Y52000
X43000Y36000
T2
X29210Y40640
X31750Y40640
X34290Y40640
X29210Y45720
X31750Y45720
X34290Y45720
X29210Y50800
X31750Y50800
X34290Y50800
X37783Y34925
X35243Y34925
X32702Y34925
X30162Y34925
X26035Y66040
X28575Y66040
X31115Y66040
X33655Y66040
T3
X43458Y61130
X43458Y67430
X38458Y64130
T4
X36830Y57150
X39370Y57150
X32385Y54610
X32385Y62230
X29845Y54610
X29845Y62230
X27305Y54610
X27305Y62230
M30