G04 EAGLE Gerber X2 export*
%TF.Part,Single*%
%TF.FileFunction,Profile,NP*%
%TF.FilePolarity,Positive*%
%TF.GenerationSoftware,Autodesk,EAGLE,9.1.3*%
%TF.CreationDate,2018-10-12T20:40:38Z*%
G75*
%MOMM*%
%FSLAX34Y34*%
%LPD*%
%AMOC8*
5,1,8,0,0,1.08239X$1,22.5*%
G01*
%ADD10C,0.254000*%


D10*
X238125Y307975D02*
X431800Y307975D01*
X473075Y349250D01*
X473075Y701675D01*
X238125Y701675D01*
X238125Y307975D01*
X379575Y630300D02*
X379594Y629864D01*
X379651Y629432D01*
X379745Y629006D01*
X379877Y628590D01*
X380043Y628187D01*
X380245Y627800D01*
X380479Y627432D01*
X380745Y627086D01*
X381039Y626764D01*
X381361Y626470D01*
X381707Y626204D01*
X382075Y625970D01*
X382462Y625768D01*
X382865Y625602D01*
X383281Y625470D01*
X383707Y625376D01*
X384139Y625319D01*
X384575Y625300D01*
X385011Y625319D01*
X385443Y625376D01*
X385869Y625470D01*
X386285Y625602D01*
X386688Y625768D01*
X387075Y625970D01*
X387443Y626204D01*
X387789Y626470D01*
X388111Y626764D01*
X388405Y627086D01*
X388671Y627432D01*
X388905Y627800D01*
X389107Y628187D01*
X389273Y628590D01*
X389405Y629006D01*
X389499Y629432D01*
X389556Y629864D01*
X389575Y630300D01*
X389575Y652300D01*
X389556Y652736D01*
X389499Y653168D01*
X389405Y653594D01*
X389273Y654010D01*
X389107Y654413D01*
X388905Y654800D01*
X388671Y655168D01*
X388405Y655514D01*
X388111Y655836D01*
X387789Y656130D01*
X387443Y656396D01*
X387075Y656630D01*
X386688Y656832D01*
X386285Y656998D01*
X385869Y657130D01*
X385443Y657224D01*
X385011Y657281D01*
X384575Y657300D01*
X384139Y657281D01*
X383707Y657224D01*
X383281Y657130D01*
X382865Y656998D01*
X382462Y656832D01*
X382075Y656630D01*
X381707Y656396D01*
X381361Y656130D01*
X381039Y655836D01*
X380745Y655514D01*
X380479Y655168D01*
X380245Y654800D01*
X380043Y654413D01*
X379877Y654010D01*
X379745Y653594D01*
X379651Y653168D01*
X379594Y652736D01*
X379575Y652300D01*
X379575Y630300D01*
X418575Y674300D02*
X418594Y673864D01*
X418651Y673432D01*
X418745Y673006D01*
X418877Y672590D01*
X419043Y672187D01*
X419245Y671800D01*
X419479Y671432D01*
X419745Y671086D01*
X420039Y670764D01*
X420361Y670470D01*
X420707Y670204D01*
X421075Y669970D01*
X421462Y669768D01*
X421865Y669602D01*
X422281Y669470D01*
X422707Y669376D01*
X423139Y669319D01*
X423575Y669300D01*
X445575Y669300D01*
X446011Y669319D01*
X446443Y669376D01*
X446869Y669470D01*
X447285Y669602D01*
X447688Y669768D01*
X448075Y669970D01*
X448443Y670204D01*
X448789Y670470D01*
X449111Y670764D01*
X449405Y671086D01*
X449671Y671432D01*
X449905Y671800D01*
X450107Y672187D01*
X450273Y672590D01*
X450405Y673006D01*
X450499Y673432D01*
X450556Y673864D01*
X450575Y674300D01*
X450556Y674736D01*
X450499Y675168D01*
X450405Y675594D01*
X450273Y676010D01*
X450107Y676413D01*
X449905Y676800D01*
X449671Y677168D01*
X449405Y677514D01*
X449111Y677836D01*
X448789Y678130D01*
X448443Y678396D01*
X448075Y678630D01*
X447688Y678832D01*
X447285Y678998D01*
X446869Y679130D01*
X446443Y679224D01*
X446011Y679281D01*
X445575Y679300D01*
X423575Y679300D01*
X423139Y679281D01*
X422707Y679224D01*
X422281Y679130D01*
X421865Y678998D01*
X421462Y678832D01*
X421075Y678630D01*
X420707Y678396D01*
X420361Y678130D01*
X420039Y677836D01*
X419745Y677514D01*
X419479Y677168D01*
X419245Y676800D01*
X419043Y676413D01*
X418877Y676010D01*
X418745Y675594D01*
X418651Y675168D01*
X418594Y674736D01*
X418575Y674300D01*
X418575Y611300D02*
X418594Y610864D01*
X418651Y610432D01*
X418745Y610006D01*
X418877Y609590D01*
X419043Y609187D01*
X419245Y608800D01*
X419479Y608432D01*
X419745Y608086D01*
X420039Y607764D01*
X420361Y607470D01*
X420707Y607204D01*
X421075Y606970D01*
X421462Y606768D01*
X421865Y606602D01*
X422281Y606470D01*
X422707Y606376D01*
X423139Y606319D01*
X423575Y606300D01*
X445575Y606300D01*
X446011Y606319D01*
X446443Y606376D01*
X446869Y606470D01*
X447285Y606602D01*
X447688Y606768D01*
X448075Y606970D01*
X448443Y607204D01*
X448789Y607470D01*
X449111Y607764D01*
X449405Y608086D01*
X449671Y608432D01*
X449905Y608800D01*
X450107Y609187D01*
X450273Y609590D01*
X450405Y610006D01*
X450499Y610432D01*
X450556Y610864D01*
X450575Y611300D01*
X418575Y611300D01*
X418575Y611300D02*
X418594Y610864D01*
X418651Y610432D01*
X418745Y610006D01*
X418877Y609590D01*
X419043Y609187D01*
X419245Y608800D01*
X419479Y608432D01*
X419745Y608086D01*
X420039Y607764D01*
X420361Y607470D01*
X420707Y607204D01*
X421075Y606970D01*
X421462Y606768D01*
X421865Y606602D01*
X422281Y606470D01*
X422707Y606376D01*
X423139Y606319D01*
X423575Y606300D01*
X445575Y606300D01*
X446011Y606319D01*
X446443Y606376D01*
X446869Y606470D01*
X447285Y606602D01*
X447688Y606768D01*
X448075Y606970D01*
X448443Y607204D01*
X448789Y607470D01*
X449111Y607764D01*
X449405Y608086D01*
X449671Y608432D01*
X449905Y608800D01*
X450107Y609187D01*
X450273Y609590D01*
X450405Y610006D01*
X450499Y610432D01*
X450556Y610864D01*
X450575Y611300D01*
X450556Y611736D01*
X450499Y612168D01*
X450405Y612594D01*
X450273Y613010D01*
X450107Y613413D01*
X449905Y613800D01*
X449671Y614168D01*
X449405Y614514D01*
X449111Y614836D01*
X448789Y615130D01*
X448443Y615396D01*
X448075Y615630D01*
X447688Y615832D01*
X447285Y615998D01*
X446869Y616130D01*
X446443Y616224D01*
X446011Y616281D01*
X445575Y616300D01*
X423575Y616300D01*
X423139Y616281D01*
X422707Y616224D01*
X422281Y616130D01*
X421865Y615998D01*
X421462Y615832D01*
X421075Y615630D01*
X420707Y615396D01*
X420361Y615130D01*
X420039Y614836D01*
X419745Y614514D01*
X419479Y614168D01*
X419245Y613800D01*
X419043Y613413D01*
X418877Y613010D01*
X418745Y612594D01*
X418651Y612168D01*
X418594Y611736D01*
X418575Y611300D01*
X418575Y611300D02*
X450575Y611300D01*
X450556Y611736D01*
X450499Y612168D01*
X450405Y612594D01*
X450273Y613010D01*
X450107Y613413D01*
X449905Y613800D01*
X449671Y614168D01*
X449405Y614514D01*
X449111Y614836D01*
X448789Y615130D01*
X448443Y615396D01*
X448075Y615630D01*
X447688Y615832D01*
X447285Y615998D01*
X446869Y616130D01*
X446443Y616224D01*
X446011Y616281D01*
X445575Y616300D01*
X423575Y616300D01*
X423139Y616281D01*
X422707Y616224D01*
X422281Y616130D01*
X421865Y615998D01*
X421462Y615832D01*
X421075Y615630D01*
X420707Y615396D01*
X420361Y615130D01*
X420039Y614836D01*
X419745Y614514D01*
X419479Y614168D01*
X419245Y613800D01*
X419043Y613413D01*
X418877Y613010D01*
X418745Y612594D01*
X418651Y612168D01*
X418594Y611736D01*
X418575Y611300D01*
X450000Y519396D02*
X449927Y518189D01*
X449781Y516989D01*
X449563Y515800D01*
X449274Y514627D01*
X448915Y513473D01*
X448486Y512343D01*
X447990Y511241D01*
X447428Y510170D01*
X446803Y509136D01*
X446116Y508141D01*
X445371Y507190D01*
X444569Y506285D01*
X443715Y505431D01*
X442810Y504629D01*
X441859Y503884D01*
X440864Y503197D01*
X439830Y502572D01*
X438759Y502010D01*
X437657Y501514D01*
X436527Y501085D01*
X435373Y500726D01*
X434200Y500437D01*
X433011Y500219D01*
X431811Y500073D01*
X430604Y500000D01*
X429396Y500000D01*
X428189Y500073D01*
X426989Y500219D01*
X425800Y500437D01*
X424627Y500726D01*
X423473Y501085D01*
X422343Y501514D01*
X421241Y502010D01*
X420170Y502572D01*
X419136Y503197D01*
X418141Y503884D01*
X417190Y504629D01*
X416285Y505431D01*
X415431Y506285D01*
X414629Y507190D01*
X413884Y508141D01*
X413197Y509136D01*
X412572Y510170D01*
X412010Y511241D01*
X411514Y512343D01*
X411085Y513473D01*
X410726Y514627D01*
X410437Y515800D01*
X410219Y516989D01*
X410073Y518189D01*
X410000Y519396D01*
X410000Y520604D01*
X410073Y521811D01*
X410219Y523011D01*
X410437Y524200D01*
X410726Y525373D01*
X411085Y526527D01*
X411514Y527657D01*
X412010Y528759D01*
X412572Y529830D01*
X413197Y530864D01*
X413884Y531859D01*
X414629Y532810D01*
X415431Y533715D01*
X416285Y534569D01*
X417190Y535371D01*
X418141Y536116D01*
X419136Y536803D01*
X420170Y537428D01*
X421241Y537990D01*
X422343Y538486D01*
X423473Y538915D01*
X424627Y539274D01*
X425800Y539563D01*
X426989Y539781D01*
X428189Y539927D01*
X429396Y540000D01*
X430604Y540000D01*
X431811Y539927D01*
X433011Y539781D01*
X434200Y539563D01*
X435373Y539274D01*
X436527Y538915D01*
X437657Y538486D01*
X438759Y537990D01*
X439830Y537428D01*
X440864Y536803D01*
X441859Y536116D01*
X442810Y535371D01*
X443715Y534569D01*
X444569Y533715D01*
X445371Y532810D01*
X446116Y531859D01*
X446803Y530864D01*
X447428Y529830D01*
X447990Y528759D01*
X448486Y527657D01*
X448915Y526527D01*
X449274Y525373D01*
X449563Y524200D01*
X449781Y523011D01*
X449927Y521811D01*
X450000Y520604D01*
X450000Y519396D01*
X450000Y359396D02*
X449927Y358189D01*
X449781Y356989D01*
X449563Y355800D01*
X449274Y354627D01*
X448915Y353473D01*
X448486Y352343D01*
X447990Y351241D01*
X447428Y350170D01*
X446803Y349136D01*
X446116Y348141D01*
X445371Y347190D01*
X444569Y346285D01*
X443715Y345431D01*
X442810Y344629D01*
X441859Y343884D01*
X440864Y343197D01*
X439830Y342572D01*
X438759Y342010D01*
X437657Y341514D01*
X436527Y341085D01*
X435373Y340726D01*
X434200Y340437D01*
X433011Y340219D01*
X431811Y340073D01*
X430604Y340000D01*
X429396Y340000D01*
X428189Y340073D01*
X426989Y340219D01*
X425800Y340437D01*
X424627Y340726D01*
X423473Y341085D01*
X422343Y341514D01*
X421241Y342010D01*
X420170Y342572D01*
X419136Y343197D01*
X418141Y343884D01*
X417190Y344629D01*
X416285Y345431D01*
X415431Y346285D01*
X414629Y347190D01*
X413884Y348141D01*
X413197Y349136D01*
X412572Y350170D01*
X412010Y351241D01*
X411514Y352343D01*
X411085Y353473D01*
X410726Y354627D01*
X410437Y355800D01*
X410219Y356989D01*
X410073Y358189D01*
X410000Y359396D01*
X410000Y360604D01*
X410073Y361811D01*
X410219Y363011D01*
X410437Y364200D01*
X410726Y365373D01*
X411085Y366527D01*
X411514Y367657D01*
X412010Y368759D01*
X412572Y369830D01*
X413197Y370864D01*
X413884Y371859D01*
X414629Y372810D01*
X415431Y373715D01*
X416285Y374569D01*
X417190Y375371D01*
X418141Y376116D01*
X419136Y376803D01*
X420170Y377428D01*
X421241Y377990D01*
X422343Y378486D01*
X423473Y378915D01*
X424627Y379274D01*
X425800Y379563D01*
X426989Y379781D01*
X428189Y379927D01*
X429396Y380000D01*
X430604Y380000D01*
X431811Y379927D01*
X433011Y379781D01*
X434200Y379563D01*
X435373Y379274D01*
X436527Y378915D01*
X437657Y378486D01*
X438759Y377990D01*
X439830Y377428D01*
X440864Y376803D01*
X441859Y376116D01*
X442810Y375371D01*
X443715Y374569D01*
X444569Y373715D01*
X445371Y372810D01*
X446116Y371859D01*
X446803Y370864D01*
X447428Y369830D01*
X447990Y368759D01*
X448486Y367657D01*
X448915Y366527D01*
X449274Y365373D01*
X449563Y364200D01*
X449781Y363011D01*
X449927Y361811D01*
X450000Y360604D01*
X450000Y359396D01*
M02*
