G04 EAGLE Gerber X2 export*
%TF.Part,Single*%
%TF.FileFunction,Soldermask,Bot,1*%
%TF.FilePolarity,Negative*%
%TF.GenerationSoftware,Autodesk,EAGLE,9.1.3*%
%TF.CreationDate,2018-10-12T20:40:38Z*%
G75*
%MOMM*%
%FSLAX34Y34*%
%LPD*%
%AMOC8*
5,1,8,0,0,1.08239X$1,22.5*%
G01*
%ADD10C,4.203200*%
%ADD11P,1.951982X8X202.500000*%
%ADD12C,1.803400*%
%ADD13C,1.727200*%
%ADD14P,1.649562X8X112.500000*%
%ADD15C,2.203200*%


D10*
X430000Y520000D03*
X430000Y360000D03*
D11*
X368300Y571500D03*
D12*
X393700Y571500D03*
D13*
X292100Y414020D02*
X292100Y398780D01*
X317500Y398780D02*
X317500Y414020D01*
X342900Y414020D02*
X342900Y398780D01*
X292100Y449580D02*
X292100Y464820D01*
X317500Y464820D02*
X317500Y449580D01*
X342900Y449580D02*
X342900Y464820D01*
X292100Y500380D02*
X292100Y515620D01*
X317500Y515620D02*
X317500Y500380D01*
X342900Y500380D02*
X342900Y515620D01*
D14*
X323850Y546100D03*
X323850Y622300D03*
X298450Y546100D03*
X298450Y622300D03*
X273050Y546100D03*
X273050Y622300D03*
D13*
X377825Y356870D02*
X377825Y341630D01*
X352425Y341630D02*
X352425Y356870D01*
X327025Y356870D02*
X327025Y341630D01*
X301625Y341630D02*
X301625Y356870D01*
X260350Y652780D02*
X260350Y668020D01*
X285750Y668020D02*
X285750Y652780D01*
X311150Y652780D02*
X311150Y668020D01*
X336550Y668020D02*
X336550Y652780D01*
D15*
X424575Y611300D02*
X444575Y611300D01*
X444575Y674300D02*
X424575Y674300D01*
X384575Y651300D02*
X384575Y631300D01*
M02*
